<svg width="16" height="16" viewBox="0 0 16 16" fill="none" xmlns="http://www.w3.org/2000/svg">
<g id="close-line-icon 1" clip-path="url(#clip0_2275_5433)">
<g id="Group">
<path id="Vector" d="M0.185648 1.08237C-0.0618825 0.834844 -0.0618825 0.433405 0.185648 0.185745C0.433178 -0.0619151 0.834617 -0.0619151 1.08228 0.185745L7.99997 7.10344L14.9177 0.185745C15.1652 -0.0619151 15.5666 -0.0619151 15.8144 0.185745C16.0619 0.433275 16.0619 0.834844 15.8144 1.08237L8.89647 7.99994L15.8143 14.9178C16.0618 15.1653 16.0618 15.5667 15.8143 15.8144C15.5666 16.062 15.1652 16.062 14.9175 15.8144L7.99984 8.89669L1.08228 15.8144C0.834747 16.062 0.433308 16.062 0.185648 15.8144C-0.0618825 15.5669 -0.0618825 15.1654 0.185648 14.9178L7.10334 7.99994L0.185648 1.08237Z" fill="#002554"/>
</g>
</g>
<defs>
<clipPath id="clip0_2275_5433">
<rect width="16" height="16.0003" fill="white"/>
</clipPath>
</defs>
</svg>
