<svg width="16" height="16" viewBox="0 0 16 16" fill="none" xmlns="http://www.w3.org/2000/svg">
<rect x="0.5" y="0.5" width="15" height="15" rx="2.5" stroke="#CE8E00"/>
<path fill-rule="evenodd" clip-rule="evenodd" d="M3.21641 8.88359L3.21821 8.88523L3.2192 8.88622L3.22117 8.88786L6.01337 11.4199C6.07898 11.4793 6.15347 11.5233 6.23191 11.552C6.31347 11.5817 6.39931 11.5949 6.48449 11.5916C6.56721 11.5885 6.64943 11.57 6.72622 11.5367C6.80038 11.5044 6.86978 11.4579 6.93029 11.3972L6.93226 11.3956L6.93769 11.391L6.93785 11.3908C6.93983 11.389 6.94164 11.3874 6.94312 11.3859L12.9199 5.12645C12.9822 5.06101 13.0284 4.98619 13.059 4.90709C13.0907 4.82487 13.1052 4.73722 13.1034 4.6504C13.1011 4.56358 13.0822 4.47691 13.0462 4.39601C13.0118 4.31823 12.9616 4.24588 12.8965 4.18372L12.896 4.18339C12.8309 4.12123 12.7559 4.07486 12.6767 4.04444C12.5944 4.01286 12.5071 3.99806 12.42 4.0002C12.3333 4.00234 12.2465 4.02142 12.1659 4.05726C12.0881 4.09163 12.0159 4.14162 11.9536 4.2069L11.9533 4.20707L6.44042 9.98122L6.42562 9.99668L6.40967 9.98238L4.11211 7.89892C4.04535 7.83857 3.96954 7.794 3.88946 7.76539C3.80642 7.73579 3.7191 7.72329 3.6326 7.72757C3.5466 7.73185 3.46126 7.75289 3.382 7.79022C3.3057 7.82623 3.23482 7.87738 3.17447 7.94348L3.17398 7.94397C3.17283 7.94512 3.17135 7.94677 3.17003 7.94825L3.16971 7.94874C3.11001 8.01534 3.06627 8.09082 3.03815 8.17041C3.00888 8.25279 2.99655 8.33962 3.00082 8.42562C3.0051 8.51162 3.02598 8.59697 3.06315 8.67606C3.09916 8.75236 3.1503 8.82324 3.21641 8.88359Z" fill="#CE8E00"/>
</svg>
