<svg width="48" height="48" viewBox="0 0 48 48" fill="none" xmlns="http://www.w3.org/2000/svg">
<g clip-path="url(#clip0_2270_5419)">
<path d="M24 0C30.6279 0 36.6274 2.68553 40.9699 7.03006C45.3125 11.3726 48 17.3741 48 24C48 30.6259 45.3145 36.6274 40.9699 40.9699C36.6274 45.3125 30.6259 48 24 48C17.3721 48 11.3726 45.3145 7.03006 40.9699C2.68553 36.6274 0 30.6259 0 24C0 17.3741 2.68553 11.3726 7.03006 7.03006C11.3726 2.68553 17.3721 0 24 0ZM22.0379 12.1647C22.0379 11.4393 22.6259 10.8512 23.3514 10.8512C24.0768 10.8512 24.6648 11.4393 24.6648 12.1647V24.289L33.7863 29.6964C34.4087 30.0642 34.6168 30.8684 34.2491 31.4928C33.8813 32.1152 33.077 32.3233 32.4526 31.9555L22.7552 26.2066C22.3289 25.9884 22.0379 25.5458 22.0379 25.0366V12.1647ZM39.1129 8.88709C35.2453 5.01945 29.9025 2.62693 24 2.62693C18.0975 2.62693 12.7547 5.01945 8.88709 8.88709C5.01945 12.7547 2.62693 18.0975 2.62693 24C2.62693 29.9025 5.01945 35.2453 8.88709 39.1129C12.7547 42.9806 18.0975 45.3731 24 45.3731C29.9025 45.3731 35.2453 42.9806 39.1129 39.1129C42.9806 35.2453 45.3731 29.9025 45.3731 24C45.3731 18.0975 42.9806 12.7547 39.1129 8.88709Z" fill="#CE8E00"/>
</g>
<defs>
<clipPath id="clip0_2270_5419">
<rect width="48" height="48" fill="white"/>
</clipPath>
</defs>
</svg>
