<svg width="24" height="16" viewBox="0 0 24 16" fill="none" xmlns="http://www.w3.org/2000/svg">
<g opacity="0.6" clip-path="url(#clip0_2674_7502)">
<path d="M0.186531 7.29029C0.757239 6.60123 1.3547 5.97407 1.97385 5.4104C4.77368 2.86213 8.09812 1.50079 11.5255 1.43243C12.8069 1.40685 14.1007 1.56232 15.3843 1.90431L14.2312 3.05745C13.3364 2.87854 12.4405 2.79885 11.5526 2.81662C8.46453 2.87834 5.45591 4.11683 2.90765 6.43638C2.45374 6.84947 2.01662 7.29381 1.59865 7.76842C2.39378 8.6905 3.27835 9.48738 4.22602 10.1565C4.80962 10.5688 5.41685 10.9325 6.04166 11.2476L5.01391 12.2753C4.47055 11.9815 3.94086 11.6534 3.42796 11.2911C2.22815 10.4438 1.12072 9.41043 0.150593 8.19538C-0.0660102 7.92253 -0.0445256 7.53717 0.186531 7.29029ZM18.756 0L19.907 1.15099L5.49204 15.5663L4.34086 14.415L18.756 0ZM19.0861 3.43929C19.95 3.93284 20.7984 4.51898 21.624 5.19985C22.3812 5.82407 23.1152 6.52271 23.8193 7.29654C24.0465 7.54596 24.0576 7.91589 23.8635 8.17682C23.0566 9.31629 22.1299 10.2893 21.1156 11.0993C18.5781 13.1249 15.4958 14.1222 12.3735 14.1362C11.1794 14.1415 10.4599 13.5228 9.2827 13.2425L9.97509 12.5505C10.769 12.6882 11.5702 12.7554 12.3681 12.7519C15.1847 12.7394 17.9644 11.8401 20.2521 10.0136C21.033 9.39031 21.7572 8.65827 22.406 7.81549C21.8617 7.24811 21.307 6.73287 20.7443 6.269C19.8742 5.55161 18.9783 4.94887 18.0671 4.45785L19.0861 3.43929ZM12.0001 3.54358C12.5204 3.54358 13.0189 3.63753 13.4798 3.80902L12.3687 4.92016C12.2478 4.90473 12.1249 4.89691 12.0003 4.89691C11.2032 4.89691 10.4817 5.21996 9.95946 5.74223C9.43719 6.2645 9.11414 6.98619 9.11414 7.78327C9.11414 7.90807 9.12196 8.03092 9.13739 8.15143L8.02624 9.26297C7.85456 8.80222 7.76081 8.30358 7.76081 7.78327C7.76081 6.61236 8.23542 5.55278 9.00262 4.78539C9.76962 4.018 10.8294 3.54358 12.0001 3.54358ZM16.0378 6.48755C16.1687 6.89576 16.2394 7.33131 16.2394 7.78327C16.2394 8.95398 15.7648 10.0138 14.9978 10.7809C14.2304 11.5481 13.1706 12.0226 12.0001 12.0226C11.5483 12.0226 11.113 11.9521 10.7046 11.8208L11.8597 10.6657C11.9062 10.6681 11.953 10.6692 12.0001 10.6692C12.7972 10.6692 13.5187 10.3466 14.0409 9.8243C14.5632 9.30203 14.8863 8.58034 14.8863 7.78346C14.8863 7.73639 14.8851 7.68971 14.8827 7.64284L16.0378 6.48755Z" fill="#686868"/>
</g>
<defs>
<clipPath id="clip0_2674_7502">
<rect width="24" height="15.5663" fill="white"/>
</clipPath>
</defs>
</svg>
