<svg width="24" height="14" viewBox="0 0 24 14" fill="none" xmlns="http://www.w3.org/2000/svg">
<g clip-path="url(#clip0_2674_7508)">
<path d="M0.185974 6.86209C0.756287 6.17264 1.35394 5.54569 1.97308 4.98123C4.77387 2.4324 8.09808 1.07108 11.5258 1.00272C14.9457 0.934358 18.4536 2.15506 21.6235 4.77029C22.3813 5.3953 23.1137 6.09256 23.8188 6.86795C24.0453 7.11795 24.0571 7.48709 23.8637 7.74881C23.0571 8.88748 22.1293 9.86209 21.1157 10.6707C18.5786 12.6961 15.4965 13.6922 12.3735 13.7078C9.26215 13.7215 6.11176 12.7586 3.42816 10.8621C2.22894 10.0144 1.12152 8.98123 0.150818 7.76639C-0.0659789 7.49295 -0.0444945 7.10819 0.185974 6.86209ZM12.0004 6.16873C12.1157 6.16873 12.2289 6.18631 12.3344 6.21561C12.2446 6.31326 12.1918 6.44412 12.1918 6.5867C12.1918 6.89139 12.4379 7.13748 12.7426 7.13748C12.893 7.13748 13.0278 7.07889 13.1274 6.98123C13.1664 7.09842 13.186 7.22342 13.186 7.35233C13.186 8.00662 12.6547 8.53787 12.0004 8.53787C11.3461 8.53787 10.8149 8.00662 10.8149 7.35233C10.8149 6.69998 11.3461 6.16873 12.0004 6.16873ZM12.0004 3.11404C13.1703 3.11404 14.2309 3.58865 14.9985 4.35623C15.7661 5.12381 16.2407 6.1824 16.2407 7.35428C16.2407 8.5242 15.7661 9.58475 14.9985 10.3523C14.2309 11.1199 13.1723 11.5945 12.0004 11.5945C10.8305 11.5945 9.76996 11.1199 9.00238 10.3523C8.2348 9.58475 7.76019 8.52615 7.76019 7.35428C7.76019 6.18436 8.2348 5.12381 9.00238 4.35623C9.76996 3.58865 10.8305 3.11404 12.0004 3.11404ZM14.0414 5.31326C13.52 4.79178 12.7973 4.46756 12.0004 4.46756C11.2036 4.46756 10.4809 4.78983 9.95941 5.31326C9.43793 5.83475 9.11371 6.5574 9.11371 7.35428C9.11371 8.15115 9.43598 8.87381 9.95941 9.39529C10.4809 9.91678 11.2036 10.241 12.0004 10.241C12.7973 10.241 13.52 9.91873 14.0414 9.39529C14.5629 8.87381 14.8871 8.15115 14.8871 7.35428C14.8871 6.5574 14.5629 5.83475 14.0414 5.31326ZM2.90863 6.00662C2.45551 6.41873 2.01801 6.86405 1.60004 7.33865C2.39496 8.26053 3.27972 9.0574 4.22699 9.72733C6.67621 11.4558 9.54144 12.3347 12.3696 12.323C15.186 12.3094 17.9653 11.4109 20.2543 9.58475C21.0356 8.9617 21.7582 8.22928 22.4086 7.38748C21.8637 6.81912 21.309 6.30545 20.7465 5.84061C17.8383 3.44412 14.6489 2.32694 11.5532 2.38748C8.46527 2.44998 5.45551 3.68826 2.90863 6.00662Z" fill="#686868"/>
</g>
<defs>
<clipPath id="clip0_2674_7508">
<rect width="24" height="12.707" fill="white" transform="translate(0 0.646484)"/>
</clipPath>
</defs>
</svg>
