<svg width="48" height="42" viewBox="0 0 48 42" fill="none" xmlns="http://www.w3.org/2000/svg">
<g id="Group 126">
<path id="Vector" d="M33.1445 3.85568C33.2108 3.85459 33.2765 3.86707 33.338 3.89237C33.3994 3.91768 33.4552 3.95531 33.5022 4.00303C33.5477 4.05147 33.5833 4.10869 33.6069 4.17133C33.6306 4.23397 33.6417 4.30079 33.6397 4.36788V18.0497C34.6088 17.7076 35.6625 17.7076 36.6316 18.0497V4.36788C36.628 3.42119 36.2582 2.51423 35.6026 1.84416C34.9471 1.17409 34.0587 0.795091 33.1308 0.789551H3.50085C2.57285 0.795091 1.68451 1.17409 1.02895 1.84416C0.373394 2.51423 0.00362015 3.42119 1.14441e-05 4.36788V37.6393C0.0054245 38.5848 0.375996 39.4899 1.03136 40.1585C1.68673 40.8271 2.57404 41.2051 3.50085 41.2106H33.3096C32.5255 40.509 31.3563 39.3232 30.1801 38.1515H3.48709C3.4209 38.1524 3.3552 38.1398 3.29386 38.1144C3.23253 38.089 3.17681 38.0513 3.13 38.0036C3.08319 37.9558 3.04625 37.899 3.02134 37.8364C2.99644 37.7738 2.98408 37.7068 2.985 37.6393V4.36788C2.98408 4.30035 2.99644 4.23333 3.02134 4.17076C3.04625 4.10819 3.08319 4.05135 3.13 4.0036C3.17681 3.95585 3.23253 3.91815 3.29386 3.89275C3.3552 3.86734 3.4209 3.85474 3.48709 3.85568H33.1445ZM26.4248 15.3905C26.8043 15.3723 27.1615 15.2023 27.419 14.9173C27.6764 14.6323 27.8135 14.2553 27.8004 13.868C27.8096 13.6755 27.7812 13.4831 27.7168 13.3019C27.6524 13.1207 27.5533 12.9545 27.4253 12.8127C27.2972 12.671 27.1428 12.5567 26.9711 12.4765C26.7993 12.3963 26.6136 12.3517 26.4248 12.3454H10.2343C10.0455 12.3517 9.85979 12.3963 9.68803 12.4765C9.51627 12.5567 9.36187 12.671 9.23384 12.8127C9.10582 12.9545 9.00671 13.1207 8.94231 13.3019C8.8779 13.4831 8.84949 13.6755 8.85872 13.868C8.84563 14.2553 8.98267 14.6323 9.24015 14.9173C9.49762 15.2023 9.8548 15.3723 10.2343 15.3905H26.4248ZM21.9267 25.3116C22.3056 25.2916 22.6617 25.1211 22.9188 24.8365C23.1759 24.5519 23.3136 24.1759 23.3023 23.7891C23.3115 23.5966 23.2831 23.4042 23.2187 23.223C23.1543 23.0418 23.0552 22.8755 22.9271 22.7338C22.7991 22.5921 22.6447 22.4778 22.473 22.3976C22.3012 22.3174 22.1155 22.2728 21.9267 22.2665H10.2343C10.0455 22.2728 9.85979 22.3174 9.68803 22.3976C9.51627 22.4778 9.36187 22.5921 9.23384 22.7338C9.10582 22.8755 9.00671 23.0418 8.94231 23.223C8.8779 23.4042 8.84949 23.5966 8.85872 23.7891C8.84563 24.1764 8.98267 24.5534 9.24015 24.8384C9.49762 25.1234 9.8548 25.2934 10.2343 25.3116H21.9267Z" fill="#CE8E00"/>
<path id="Vector_2" fill-rule="evenodd" clip-rule="evenodd" d="M48 28.0331L38.6632 37.4212L38.7088 32.7041C32.8676 31.423 26.2689 32.9307 22.7368 37.4074C23.4122 28.1441 31.6675 23.5194 38.791 23.2882L38.832 18.4739L48 28.0285V28.0331Z" fill="#CE8E00"/>
</g>
</svg>
