<svg xmlns="http://www.w3.org/2000/svg" width="16" height="17" viewBox="0 0 16 17" fill="none">
  <path d="M15.478 9.19598C15.55 9.43598 15.586 9.68398 15.586 9.93598C15.586 10.502 15.4 11.046 15.064 11.49C15.136 11.73 15.172 11.978 15.172 12.23C15.172 12.796 14.986 13.34 14.65 13.784C14.722 14.024 14.758 14.272 14.758 14.524C14.758 15.556 14.144 16.486 13.192 16.892C13.0247 16.9641 12.8442 17.0009 12.662 17H0.64C0.286 17 0 16.714 0 16.36V9.07998C0 8.72598 0.286 8.43998 0.64 8.43998H3.226L4.942 2.22398C5.218 1.22198 6.138 0.521984 7.178 0.521984C7.772 0.521984 8.326 0.757984 8.736 1.18998C9.146 1.61998 9.356 2.18398 9.326 2.77798L9.206 5.23598H14.004C14.246 5.23598 14.482 5.29998 14.69 5.42198C15.498 5.89198 16 6.74398 16 7.64198C16 8.20798 15.814 8.75198 15.478 9.19598ZM1.44 9.88198V15.562H3.06V9.88198H1.44ZM13.984 6.67398H7.696L7.888 2.70598C7.9 2.46798 7.794 2.24398 7.596 2.09598C7.474 2.00598 7.324 1.95998 7.174 1.96198C6.98236 1.96384 6.7965 2.02781 6.64432 2.1443C6.49213 2.26078 6.38184 2.42348 6.33 2.60798L4.34 9.81798V15.562H12.648C12.8479 15.4724 13.0177 15.327 13.1369 15.1432C13.2561 14.9594 13.3197 14.7451 13.32 14.526C13.32 14.332 13.274 14.148 13.182 13.98L12.904 13.472L13.342 13.092C13.4653 12.9852 13.5641 12.8531 13.6318 12.7047C13.6994 12.5563 13.7343 12.3951 13.734 12.232C13.734 12.038 13.688 11.854 13.596 11.686L13.318 11.178L13.756 10.798C13.8793 10.6912 13.9781 10.5591 14.0458 10.4107C14.1134 10.2623 14.1483 10.1011 14.148 9.93798C14.148 9.74398 14.102 9.55998 14.01 9.39198L13.73 8.88198L14.168 8.50198C14.2913 8.39521 14.3901 8.26312 14.4578 8.11472C14.5254 7.96632 14.5603 7.80508 14.56 7.64198C14.56 7.25998 14.34 6.89198 13.984 6.67398Z" fill="#FFFAFA"/>
</svg>