<svg width="48" height="48" viewBox="0 0 48 48" fill="none" xmlns="http://www.w3.org/2000/svg">
<g id="Group">
<path id="Vector" d="M23.9998 0C30.6271 0 36.627 2.68633 40.9704 7.0293C45.3137 11.3723 48 17.3727 48 23.9996C48 30.6273 45.3137 36.6273 40.9704 40.9703C36.627 45.3133 30.6271 48 23.9998 48C17.3725 48 11.3726 45.3137 7.02963 40.9707C2.6867 36.6277 0 30.6273 0 23.9996C0 17.3727 2.68631 11.3723 7.02963 7.0293C11.373 2.68633 17.3725 0 23.9998 0ZM13.4983 26.2418C12.9854 25.7777 12.9456 24.9855 13.41 24.4727C13.8741 23.9598 14.6663 23.9199 15.1792 24.384L20.4295 29.1449L32.7509 16.2402C33.2286 15.7379 34.0236 15.7184 34.5255 16.1957C35.0275 16.6734 35.0474 17.468 34.5696 17.9699L21.4033 31.7598L21.4018 31.7582C20.935 32.2492 20.1588 32.2809 19.6537 31.8238L13.4983 26.2418ZM39.1911 8.80859C35.3032 4.92109 29.9322 2.51602 23.9998 2.51602C18.067 2.51602 12.696 4.9207 8.80852 8.8082C4.92066 12.6961 2.51639 18.0668 2.51639 23.9996C2.51639 29.9324 4.92105 35.3035 8.80852 39.1914C12.696 43.0789 18.067 45.4836 23.9998 45.4836C29.9322 45.4836 35.3032 43.0789 39.1911 39.1914C43.0789 35.3035 45.4828 29.9328 45.4828 23.9996C45.4832 18.0672 43.0789 12.6961 39.1911 8.80859Z" fill="#00D084"/>
</g>
</svg>
