<svg width="24" height="24" viewBox="0 0 24 24" fill="none" xmlns="http://www.w3.org/2000/svg">
<g id="Group 59">
<circle id="Ellipse 3" cx="12" cy="12" r="11.5" stroke="#CE8E00"/>
<path id="Vector" d="M15.9188 13.6193C16.4651 13.6198 17.0011 13.7756 17.4702 14.0704C17.9393 14.3651 18.3241 14.7879 18.5839 15.2939C18.8437 15.7999 18.9688 16.3705 18.946 16.9452C18.9233 17.5199 18.7535 18.0775 18.4546 18.559L19.7666 20.0641L18.8617 20.9354L17.5991 19.4696C17.2051 19.7459 16.7552 19.9212 16.2854 19.9816C15.8155 20.0419 15.3388 19.9856 14.8933 19.8171C14.4478 19.6487 14.046 19.3728 13.72 19.0114C13.3939 18.6501 13.1528 18.2135 13.0157 17.7364C12.8787 17.2594 12.8497 16.7552 12.9309 16.2642C13.0121 15.7732 13.2014 15.309 13.4836 14.9089C13.7657 14.5087 14.1329 14.1837 14.5558 13.9597C14.9787 13.7358 15.4454 13.6192 15.9188 13.6193ZM14.6602 17.1663C14.6441 17.1482 14.6298 17.1284 14.6175 17.1073C14.604 17.0867 14.5928 17.0645 14.5841 17.0412C14.5496 16.9587 14.5412 16.8666 14.56 16.7786C14.5788 16.6907 14.624 16.6113 14.6888 16.5524C14.7536 16.4934 14.8347 16.4579 14.9201 16.451C15.0055 16.4441 15.0908 16.4663 15.1634 16.5142C15.1864 16.5273 15.2076 16.5439 15.2261 16.5634C15.3369 16.6744 15.3716 16.704 15.493 16.8122L15.5985 16.9119L16.5821 15.8088C16.9464 15.4153 17.527 15.9929 17.164 16.3962L15.9628 17.7355L15.9094 17.7945C15.8379 17.8758 15.7388 17.9242 15.6337 17.9292C15.5285 17.9342 15.4257 17.8954 15.3475 17.8212C15.3208 17.7945 15.2928 17.7664 15.2635 17.7397L15.0633 17.55C14.9031 17.4094 14.811 17.3237 14.6629 17.1663H14.6602ZM7.63994 12.8408C7.54246 12.8349 7.45102 12.7892 7.38517 12.7133C7.31932 12.6374 7.2843 12.5374 7.28759 12.4346C7.2849 12.3835 7.29193 12.3323 7.30826 12.284C7.3246 12.2358 7.34991 12.1914 7.38273 12.1536C7.41554 12.1158 7.45519 12.0852 7.49936 12.0637C7.54352 12.0423 7.59132 12.0303 7.63994 12.0285H10.6616C10.7593 12.0339 10.8511 12.0795 10.9172 12.1555C10.9833 12.2314 11.0186 12.3316 11.0153 12.4346C11.0176 12.4858 11.0103 12.5369 10.9937 12.5851C10.9772 12.6333 10.9517 12.6776 10.9188 12.7153C10.8859 12.7531 10.8463 12.7836 10.8021 12.8051C10.758 12.8267 10.7102 12.8388 10.6616 12.8408H7.63994ZM16.3285 6.13741H17.5964C17.7152 6.137 17.8329 6.16166 17.9424 6.20994C18.052 6.25821 18.1513 6.32912 18.2344 6.41848C18.3188 6.50632 18.3859 6.61091 18.4317 6.72621C18.4775 6.84151 18.5012 6.96523 18.5013 7.09021V12.2899C18.4733 12.5878 17.7793 12.592 17.7205 12.2899V7.09021C17.7217 7.07144 17.7191 7.05261 17.7128 7.035C17.7065 7.01739 17.6967 7.00139 17.6841 6.98809C17.6714 6.97478 17.6562 6.96447 17.6395 6.95785C17.6228 6.95123 17.6049 6.94844 17.5871 6.94968H16.3245V12.2899C16.2564 12.5611 15.6785 12.6004 15.5477 12.2899V4.61967C15.548 4.58369 15.5351 4.54898 15.5117 4.52271C15.4868 4.49811 15.4538 4.48453 15.4196 4.48476H5.89956C5.86584 4.48489 5.83342 4.49844 5.8088 4.52271C5.79656 4.53529 5.78693 4.55039 5.7805 4.56708C5.77407 4.58377 5.77098 4.60167 5.77143 4.61967V15.9437C5.77025 15.9625 5.7729 15.9813 5.77919 15.9989C5.78548 16.0165 5.79527 16.0325 5.8079 16.0458C5.82054 16.0591 5.83573 16.0694 5.85246 16.0761C5.86919 16.0827 5.88706 16.0855 5.9049 16.0842H11.5758C11.9669 16.1264 11.9762 16.8389 11.5758 16.9021H7.94291V18.4198C7.94304 18.456 7.95643 18.4908 7.98028 18.5168C8.00523 18.5414 8.03819 18.555 8.07237 18.5548H11.5758C11.8601 18.5885 11.9509 19.2673 11.5758 19.3727H8.07637C7.95759 19.3731 7.83994 19.3484 7.73037 19.3001C7.62079 19.2519 7.52152 19.1809 7.43841 19.0916C7.35397 19.0037 7.2869 18.8992 7.24109 18.7839C7.19527 18.6686 7.17161 18.5448 7.17148 18.4198V16.8965H5.9049C5.78612 16.8969 5.66847 16.8722 5.55889 16.824C5.44932 16.7757 5.35004 16.7048 5.26693 16.6154C5.1825 16.5276 5.11543 16.423 5.06961 16.3077C5.0238 16.1924 5.00014 16.0687 5 15.9437V4.61967C4.99962 4.49461 5.02304 4.37073 5.06888 4.25535C5.11473 4.13997 5.18207 4.03544 5.26693 3.94794C5.35027 3.8589 5.44959 3.7882 5.55911 3.73995C5.66863 3.6917 5.78617 3.66686 5.9049 3.66687H15.4236C15.5426 3.66659 15.6604 3.6913 15.7702 3.73957C15.8799 3.78783 15.9795 3.85867 16.0629 3.94794C16.1473 4.03582 16.2143 4.14043 16.2601 4.25572C16.3059 4.37101 16.3296 4.4947 16.3298 4.61967V6.13741H16.3285ZM7.63594 7.71136C7.53822 7.7059 7.44644 7.6603 7.38031 7.58436C7.31418 7.50842 7.27897 7.4082 7.28225 7.30523C7.27975 7.25401 7.28694 7.20278 7.30343 7.15452C7.31992 7.10625 7.34536 7.06193 7.37828 7.02413C7.4112 6.98633 7.45093 6.95581 7.49517 6.93434C7.53941 6.91287 7.58726 6.90089 7.63594 6.89909H13.6752C13.7729 6.90455 13.8647 6.95015 13.9309 7.02609C13.997 7.10203 14.0322 7.20225 14.0289 7.30523C14.0312 7.3564 14.0239 7.40756 14.0074 7.45574C13.9908 7.50391 13.9654 7.54816 13.9325 7.58592C13.8996 7.62369 13.8599 7.65421 13.8158 7.67574C13.7716 7.69727 13.7238 7.70938 13.6752 7.71136H7.63594ZM7.63594 10.2761C7.53822 10.2706 7.44644 10.225 7.38031 10.1491C7.31418 10.0731 7.27897 9.9729 7.28225 9.86992C7.27975 9.8187 7.28694 9.76747 7.30343 9.71921C7.31992 9.67095 7.34536 9.62663 7.37828 9.58883C7.4112 9.55102 7.45093 9.5205 7.49517 9.49903C7.53941 9.47757 7.58726 9.46559 7.63594 9.46379H13.6752C13.7729 9.46925 13.8647 9.51485 13.9309 9.59079C13.997 9.66673 14.0322 9.76695 14.0289 9.86992C14.0325 9.97258 13.9973 10.0725 13.931 10.1479C13.8647 10.2232 13.7727 10.2678 13.6752 10.2718L7.63594 10.2761ZM17.531 15.1146C17.1585 14.7225 16.6683 14.4785 16.1441 14.4243C15.6199 14.3701 15.0941 14.5089 14.6562 14.8171C14.2183 15.1252 13.8954 15.5838 13.7425 16.1145C13.5897 16.6453 13.6163 17.2154 13.8179 17.7278C14.0195 18.2402 14.3835 18.6632 14.8481 18.9246C15.3126 19.1861 15.8488 19.2699 16.3654 19.1617C16.8821 19.0536 17.3471 18.7601 17.6813 18.3315C18.0155 17.9028 18.1982 17.3654 18.1984 16.8108C18.1989 16.4957 18.1401 16.1836 18.0256 15.8925C17.9111 15.6014 17.743 15.337 17.531 15.1146Z" fill="#CE8E00"/>
</g>
</svg>
