<svg xmlns="http://www.w3.org/2000/svg" width="16" height="17" viewBox="0 0 16 17" fill="none">
<path d="M15.478 7.80402C15.55 7.56402 15.586 7.31602 15.586 7.06402C15.586 6.49802 15.4 5.95402 15.064 5.51002C15.136 5.27002 15.172 5.02202 15.172 4.77002C15.172 4.20402 14.986 3.66002 14.65 3.21602C14.722 2.97602 14.758 2.72802 14.758 2.47602C14.758 1.44402 14.144 0.514017 13.192 0.108017C13.0247 0.0358738 12.8442 -0.000895719 12.662 1.65692e-05H0.64C0.286 1.65692e-05 0 0.286017 0 0.640017V7.92002C0 8.27402 0.286 8.56002 0.64 8.56002H3.226L4.942 14.776C5.218 15.778 6.138 16.478 7.178 16.478C7.772 16.478 8.326 16.242 8.736 15.81C9.146 15.38 9.356 14.816 9.326 14.222L9.206 11.764H14.004C14.246 11.764 14.482 11.7 14.69 11.578C15.498 11.108 16 10.256 16 9.35802C16 8.79202 15.814 8.24802 15.478 7.80402ZM1.44 7.11802V1.43802H3.06V7.11802H1.44ZM13.984 10.326H7.696L7.888 14.294C7.9 14.532 7.794 14.756 7.596 14.904C7.474 14.994 7.324 15.04 7.174 15.038C6.98236 15.0362 6.7965 14.9722 6.64432 14.8557C6.49213 14.7392 6.38184 14.5765 6.33 14.392L4.34 7.18202V1.43802H12.648C12.8479 1.52761 13.0177 1.67305 13.1369 1.85684C13.2561 2.04063 13.3197 2.25495 13.32 2.47402C13.32 2.66802 13.274 2.85202 13.182 3.02002L12.904 3.52802L13.342 3.90802C13.4653 4.01479 13.5641 4.14688 13.6318 4.29528C13.6994 4.44369 13.7343 4.60492 13.734 4.76802C13.734 4.96202 13.688 5.14602 13.596 5.31402L13.318 5.82202L13.756 6.20202C13.8793 6.30879 13.9781 6.44088 14.0458 6.58928C14.1134 6.73769 14.1483 6.89892 14.148 7.06202C14.148 7.25602 14.102 7.44002 14.01 7.60802L13.73 8.11802L14.168 8.49802C14.2913 8.60479 14.3901 8.73688 14.4578 8.88528C14.5254 9.03368 14.5603 9.19492 14.56 9.35802C14.56 9.74002 14.34 10.108 13.984 10.326Z" fill="#FFFAFA"/>
</svg>